<svg xmlns="http://www.w3.org/2000/svg" viewBox="0 0 100 100">
  <!-- Jester Hat in Red, Blue, Orange -->

  <!-- Left prong (Red) -->
  <path d="M15 55 Q5 25 20 10 Q25 8 28 12 Q35 35 35 55 Z" fill="#E53935" stroke="#B71C1C" stroke-width="1.5"/>
  <!-- Left bell -->
  <circle cx="20" cy="8" r="6" fill="#FFD700" stroke="#FFA000" stroke-width="1"/>
  <circle cx="20" cy="8" r="2" fill="#FFA000"/>

  <!-- Middle prong (Blue) -->
  <path d="M35 55 Q40 20 50 5 Q55 3 60 5 Q70 20 65 55 Z" fill="#1E88E5" stroke="#1565C0" stroke-width="1.5"/>
  <!-- Middle bell -->
  <circle cx="55" cy="3" r="7" fill="#FFD700" stroke="#FFA000" stroke-width="1"/>
  <circle cx="55" cy="3" r="2.5" fill="#FFA000"/>

  <!-- Right prong (Orange) -->
  <path d="M65 55 Q75 35 82 12 Q85 8 88 10 Q95 25 85 55 Z" fill="#FB8C00" stroke="#EF6C00" stroke-width="1.5"/>
  <!-- Right bell -->
  <circle cx="88" cy="8" r="6" fill="#FFD700" stroke="#FFA000" stroke-width="1"/>
  <circle cx="88" cy="8" r="2" fill="#FFA000"/>

  <!-- Hat band -->
  <path d="M10 55 Q50 45 90 55 Q90 65 50 60 Q10 65 10 55 Z" fill="#7B1FA2" stroke="#4A148C" stroke-width="1.5"/>

  <!-- Decorative dots on band -->
  <circle cx="25" cy="56" r="3" fill="#FFD700"/>
  <circle cx="50" cy="53" r="3" fill="#FFD700"/>
  <circle cx="75" cy="56" r="3" fill="#FFD700"/>

  <!-- Face circle (optional - gives it a mascot feel) -->
  <ellipse cx="50" cy="78" rx="30" ry="20" fill="#FFCC80" stroke="#FF8F00" stroke-width="1.5"/>

  <!-- Eyes -->
  <ellipse cx="38" cy="75" rx="5" ry="6" fill="white"/>
  <ellipse cx="62" cy="75" rx="5" ry="6" fill="white"/>
  <circle cx="39" cy="76" r="2.5" fill="#333"/>
  <circle cx="63" cy="76" r="2.5" fill="#333"/>

  <!-- Smile -->
  <path d="M35 85 Q50 95 65 85" fill="none" stroke="#333" stroke-width="2" stroke-linecap="round"/>

  <!-- Rosy cheeks -->
  <ellipse cx="30" cy="82" rx="4" ry="3" fill="#FFAB91" opacity="0.6"/>
  <ellipse cx="70" cy="82" rx="4" ry="3" fill="#FFAB91" opacity="0.6"/>
</svg>
